<svg version="1.1" id="Layer_1" xmlns="http://www.w3.org/2000/svg" xmlns:xlink="http://www.w3.org/1999/xlink" x="0px" y="0px"
	 width="100%" viewBox="0 0 1024 1024" enable-background="new 0 0 1024 1024" xml:space="preserve">
<path fill="#008000" opacity="1.000000" stroke="none" 
	d="
M571.308838,639.440552 
	C546.064209,645.043640 521.270081,650.748596 496.386993,656.035034 
	C485.309662,658.388489 475.343109,651.907471 472.944977,641.641113 
	C470.453247,630.973938 475.991028,621.374268 486.997009,617.981934 
	C507.192993,611.756958 527.459778,605.761963 547.686829,599.637390 
	C550.024414,598.929626 552.631958,598.679382 554.278809,596.419556 
	C554.053772,593.639771 551.962585,592.058289 550.347595,590.231262 
	C537.659973,575.878235 524.906555,561.583252 512.236206,547.215027 
	C507.240692,541.550110 503.344971,535.167908 500.526733,528.145447 
	C494.394043,512.863770 497.927032,498.451935 510.201233,487.407288 
	C533.480225,466.460297 556.584473,445.318481 579.949585,424.468567 
	C583.665405,421.152710 583.959656,418.729095 580.850281,415.004333 
	C577.227600,410.664612 573.872437,406.063629 570.791321,401.322449 
	C568.535095,397.850494 565.598267,396.502441 561.646545,396.356598 
	C544.011658,395.705658 526.379456,394.979187 508.748657,394.223450 
	C505.761841,394.095428 502.753876,393.882172 499.813019,393.375580 
	C492.630310,392.138397 487.688721,386.163666 487.703766,379.012268 
	C487.719086,371.740265 492.525116,366.006866 499.831238,364.650574 
	C501.626862,364.317230 503.462494,364.091858 505.286499,364.035522 
	C529.585754,363.285248 553.887390,362.611053 578.184814,361.806549 
	C581.266907,361.704498 583.576416,362.494659 585.608276,364.893707 
	C608.321594,391.712616 631.117004,418.461945 653.830078,445.281036 
	C656.919983,448.929535 657.643677,453.740356 659.274902,458.071411 
	C663.733215,469.908539 668.110229,481.781647 672.192749,493.751953 
	C673.491760,497.560669 675.464783,498.736725 679.411011,498.835938 
	C696.052856,499.254211 712.685913,500.033112 729.320679,500.716278 
	C738.039673,501.074371 744.330444,507.386169 744.274780,515.629211 
	C744.219482,523.816406 737.814026,529.945862 729.107849,530.334595 
	C705.660706,531.381409 682.212402,532.417664 658.776062,533.672852 
	C655.522461,533.847046 653.929321,532.687988 652.525330,530.050598 
	C646.264832,518.290466 639.902466,506.584198 633.518921,494.890106 
	C632.177979,492.433594 631.139282,489.759491 629.025635,487.718384 
	C626.373047,487.825226 624.977051,489.933228 623.206665,491.318329 
	C607.073486,503.940277 591.044250,516.696045 574.833923,529.217651 
	C571.595886,531.718811 571.280396,533.588928 573.755615,536.863220 
	C588.923645,556.928040 603.873230,577.157715 618.996277,597.256714 
	C629.826538,611.650452 624.247314,627.644958 606.799316,631.640259 
	C595.129028,634.312561 583.416687,636.801208 571.308838,639.440552 
z"/>
<path fill="#008000" opacity="1.000000" stroke="none" 
	d="
M477.666077,580.701294 
	C442.319977,607.131226 407.299622,633.397766 372.177765,659.527893 
	C359.294983,669.112488 343.185150,663.111511 340.155212,647.653503 
	C338.721649,640.340027 341.470245,634.189453 347.006226,629.389465 
	C364.866791,613.903320 382.796204,598.496460 400.697174,583.056885 
	C424.019714,562.941162 447.337372,542.819702 470.669220,522.714722 
	C472.141907,521.445740 473.357300,519.742249 476.272766,519.379822 
	C477.509705,537.174133 482.072784,553.723572 496.523743,566.595215 
	C489.850250,571.585815 483.900940,576.034912 477.666077,580.701294 
z"/>
<path fill="#008000" opacity="1.000000" stroke="none" 
	d="
M658.348755,419.244995 
	C654.892273,397.653931 669.014954,378.177368 690.094971,374.880371 
	C711.383118,371.550842 730.213257,385.873047 733.939392,408.228363 
	C737.074524,427.037933 722.582214,446.827576 703.126526,450.304230 
	C681.770020,454.120514 662.394043,440.830231 658.348755,419.244995 
z"/>
<path fill="#008000" opacity="1.000000" stroke="none" 
	d="
M497.897034,432.714752 
	C504.487061,437.594086 506.597137,443.190643 504.419342,449.247833 
	C501.989441,456.006226 496.725555,458.937561 488.628143,458.565765 
	C470.180481,457.718750 451.725128,457.036377 433.271606,456.320618 
	C422.131409,455.888489 410.986389,455.574890 399.848419,455.094330 
	C395.330139,454.899384 391.322540,453.513580 389.074890,449.101410 
	C385.390686,441.869354 389.859283,433.983215 397.987213,433.699982 
	C419.108246,432.964050 440.233795,432.357239 461.357910,431.710571 
	C470.338440,431.435638 479.320435,431.207520 488.300598,430.921509 
	C491.505524,430.819427 494.609985,431.164734 497.897034,432.714752 
z"/>
<path fill="#008000" opacity="1.000000" stroke="none" 
	d="
M337.436554,511.081207 
	C331.508270,507.555939 329.597504,503.618500 330.822968,498.132050 
	C331.831177,493.618561 335.635559,490.834045 341.812134,490.618408 
	C362.281525,489.903778 382.755524,489.321716 403.227753,488.688660 
	C413.215332,488.379822 423.201752,487.892303 433.190887,487.829315 
	C439.085815,487.792114 444.022308,490.247986 446.456726,495.929962 
	C448.633575,501.010834 448.119629,506.037567 444.582031,510.508240 
	C441.922577,513.869019 438.410797,515.510498 434.124512,515.353455 
	C411.326294,514.518616 388.516968,513.891113 365.736969,512.702881 
	C356.435944,512.217773 347.050842,513.072021 337.436554,511.081207 
z"/>
<path fill="#008000" opacity="1.000000" stroke="none" 
	d="
M367.439026,571.691650 
	C348.865082,570.847412 330.749207,570.089905 312.634827,569.297546 
	C305.654388,568.992249 298.668091,568.734741 291.701874,568.219482 
	C286.126740,567.807129 282.065186,563.501282 281.747162,558.126953 
	C281.447388,553.060486 284.910370,548.544495 290.184052,547.228943 
	C291.303192,546.949890 292.481842,546.821533 293.637604,546.790039 
	C320.082794,546.070557 346.526978,545.301086 372.975128,544.710022 
	C383.346466,544.478210 389.517670,549.935059 389.287689,558.615295 
	C389.061401,567.155823 382.324463,572.559814 372.372101,572.152039 
	C370.877869,572.090759 369.389008,571.896973 367.439026,571.691650 
z"/>
</svg>